<svg width="100" height="100" viewBox="0 0 100 100" fill="none" xmlns="http://www.w3.org/2000/svg">
<path fill-rule="evenodd" clip-rule="evenodd" d="M50 0C22.3858 0 0 22.3858 0 50C0 77.6142 22.3858 100 50 100C77.6142 100 100 77.6142 100 50C100 22.3858 77.6142 0 50 0ZM65.1298 22.5076C65.5689 22.7752 65.9238 23.158 66.1548 23.6132L77.2659 45.5271C77.459 45.9077 77.5595 46.3274 77.5595 46.753C77.5595 47.1786 77.459 47.5984 77.2659 47.979L66.1548 69.8956C65.6825 70.8243 64.7214 71.4106 63.6686 71.4106H35.8909C34.8381 71.4106 33.877 70.8243 33.4048 69.8983L22.2937 47.9817C22.1005 47.6011 22 47.1814 22 46.7558C22 46.3302 22.1005 45.9104 22.2937 45.5298L33.4048 23.6132C33.877 22.6845 34.8381 22.0982 35.8909 22.0982H63.6686C64.1848 22.0983 64.6907 22.2401 65.1298 22.5076ZM48.7186 44.0148H70.2853L61.952 27.5774H40.3853L48.7186 44.0148ZM40.3853 65.9314H61.952L70.2853 49.494H48.7186L40.3853 65.9314Z" fill="#CC3300"/>
</svg>
