<svg width="100" height="100" viewBox="0 0 100 100" fill="none" xmlns="http://www.w3.org/2000/svg">
<path fill-rule="evenodd" clip-rule="evenodd" d="M50 0C22.3858 0 0 22.3858 0 50C0 77.6142 22.3858 100 50 100C77.6142 100 100 77.6142 100 50C100 22.3858 77.6142 0 50 0ZM39.0451 22.3079L69.6868 35.6108C70.2947 35.8748 70.7715 36.3659 71.0128 36.9763C71.254 37.5866 71.24 38.2664 70.9737 38.8666L63.4481 55.831C63.1826 56.4296 62.6878 56.9004 62.0716 57.1405C61.4555 57.3806 60.7681 57.3705 60.1594 57.1126L51.5827 53.4881L48.5173 61.0438C47.7547 62.934 45.926 64.1562 43.8615 64.1562H33.0171V71.5782H28V51.786H33.0171V59.2081H43.8615L46.972 51.5386L29.5202 44.1635C28.9088 43.9049 28.4266 43.4174 28.1796 42.8083C27.9327 42.1991 27.9411 41.5181 28.2032 40.9151L35.7288 23.5969C35.8593 23.2963 36.0489 23.0241 36.2866 22.7961C36.5242 22.5681 36.8053 22.3887 37.1135 22.2683C37.7372 22.0285 38.432 22.0428 39.0451 22.3079ZM68.3172 55.8187L72.978 57.6544L77.9901 45.2818L73.3292 43.4485L68.3172 55.8187Z" fill="#CC3300"/>
</svg>
