<svg width="100" height="100" viewBox="0 0 100 100" fill="none" xmlns="http://www.w3.org/2000/svg">
<path fill-rule="evenodd" clip-rule="evenodd" d="M50 0C22.3858 0 0 22.3858 0 50C0 77.6142 22.3858 100 50 100C77.6142 100 100 77.6142 100 50C100 22.3858 77.6142 0 50 0ZM71.8977 45.3592C72.2289 45.7003 72.4546 46.1275 72.5485 46.5906C72.6434 47.0534 72.6033 47.5334 72.4329 47.9747C72.2625 48.4161 71.9688 48.8007 71.5858 49.0842L41.1844 71.5717C40.7463 71.8969 40.2126 72.0723 39.6643 72.0714C39.2213 72.0703 38.7864 71.9547 38.4027 71.7362C38.0191 71.5177 37.7002 71.204 37.4778 70.8261C37.2554 70.4483 37.1372 70.0196 37.135 69.5827C37.1328 69.1458 37.2467 68.716 37.4653 68.336L45.9397 53.7091L28.9174 49.5089C28.4619 49.3963 28.047 49.161 27.7192 48.8293C27.3914 48.4976 27.1636 48.0826 27.0611 47.6306C26.9586 47.1786 26.9855 46.7074 27.1388 46.2696C27.2922 45.8318 27.5658 45.4446 27.9294 45.1514L55.7973 22.6638C56.2357 22.3087 56.7827 22.1096 57.3499 22.0987C57.9172 22.0878 58.4716 22.2658 58.9236 22.6039C59.3765 22.9397 59.7019 23.4159 59.8475 23.956C59.9932 24.4961 59.9506 25.0688 59.7267 25.5822L53.2994 40.3765L70.6788 44.6641C71.1438 44.7769 71.5666 45.018 71.8977 45.3592Z" fill="#CC3300"/>
</svg>
