<svg width="179" height="95" viewBox="0 0 179 95" fill="none" xmlns="http://www.w3.org/2000/svg">
<path d="M43.25 6.02697C43.25 5.33006 43.8199 4.76774 44.5167 4.77708L152.517 6.22351C153.201 6.23266 153.75 6.78957 153.75 7.47339V61C153.75 61.6904 153.19 62.25 152.5 62.25H44.5C43.8096 62.25 43.25 61.6904 43.25 61V6.02697Z" fill="#262AA3" stroke="#1F1C3A" stroke-width="1.5"/>
<path d="M37.25 13.0275C37.25 12.3304 37.8201 11.7681 38.517 11.7776L144.517 13.223C145.201 13.2324 145.75 13.7892 145.75 14.4729V68C145.75 68.6904 145.19 69.25 144.5 69.25H38.5C37.8096 69.25 37.25 68.6904 37.25 68V13.0275Z" fill="#262AA3" stroke="#1F1C3A" stroke-width="1.5"/>
<path d="M26 19.0273V83.8561C26 84.2482 26.2256 84.604 26.5945 84.737C29.2096 85.6798 36.9878 87.5354 52 89C72.5 91 88 84.5 102 80C112.679 76.5675 128.752 76.4987 136.437 76.9331C137.015 76.9659 137.5 76.5075 137.5 75.9278V21.9735C137.5 21.4316 137.069 20.9884 136.527 20.9738L27.0269 18.0276C26.4643 18.0125 26 18.4644 26 19.0273Z" fill="#262AA3" stroke="#1F1C3A" stroke-width="1.5"/>
<rect x="72" y="26" width="22" height="57" fill="#CC3300"/>
<path fill-rule="evenodd" clip-rule="evenodd" d="M76.7923 41.599L72.543 73.4H81.743C84.4538 73.4 86.6699 72.5443 88.3498 70.8088C90.0365 69.0776 90.9415 66.7352 91.0982 63.8237L91.0984 63.8204C91.1769 62.0999 90.9426 60.5944 90.3768 59.318C89.9237 58.2959 89.3071 57.5061 88.5195 56.9736C90.8922 55.3965 92.1848 53.1361 92.375 50.2232L92.3751 50.221C92.5322 47.5955 91.9457 45.4836 90.5544 43.9471C89.1683 42.39 87.1123 41.6359 84.463 41.6213L76.7923 41.599ZM86.7039 63.7809C86.5401 65.3139 86.0108 66.5204 85.1157 67.4004C84.9479 67.5654 84.7734 67.715 84.5921 67.849C84.7734 67.715 84.9479 67.5654 85.1157 67.4004C86.0108 66.5204 86.5402 65.3139 86.7039 63.7809C86.8567 62.3189 86.6875 61.1763 86.1963 60.353C85.8913 59.8418 85.4621 59.4784 84.9088 59.2627C85.4621 59.4784 85.8913 59.8418 86.1963 60.353C86.6875 61.1763 86.8567 62.3189 86.7039 63.7809ZM83.9659 59.0481C83.8974 59.0416 83.8278 59.0365 83.7568 59.033L78.9105 59.0117L83.7568 59.033C83.8277 59.0365 83.8974 59.0416 83.9659 59.0481ZM78.0737 68.3015L79.2604 59.4132L83.7457 59.4329C84.7709 59.4863 85.4448 59.8742 85.8528 60.558C86.2817 61.2768 86.4543 62.3198 86.3061 63.7388C86.1498 65.2012 85.6502 66.3139 84.8353 67.1152C84.0167 67.9201 83.0314 68.3203 81.8576 68.3205L78.0737 68.3015ZM87.5013 50.4531C87.3562 51.785 86.8907 52.8063 86.1292 53.5522C85.3739 54.2921 84.3936 54.6726 83.1523 54.6728H83.151L79.891 54.6541L80.9468 46.7452L84.795 46.7647C85.8845 46.8124 86.5907 47.152 87.01 47.7117C87.4395 48.285 87.6327 49.1735 87.5013 50.4531ZM84.9643 54.7641C85.5073 54.5583 85.9889 54.2496 86.4092 53.8379C87.2496 53.0147 87.7463 51.9004 87.8991 50.4952C88.172 47.8409 87.1405 46.4641 84.8047 46.3647L80.5969 46.3434L84.8046 46.3647C87.1405 46.4641 88.1719 47.8409 87.8991 50.4952C87.7462 51.9004 87.2496 53.0147 86.4092 53.8379C85.9889 54.2496 85.5073 54.5583 84.9643 54.7641Z" fill="#FFCC00"/>
</svg>
