<svg width="107" height="113" viewBox="0 0 107 113" fill="none" xmlns="http://www.w3.org/2000/svg">
<path fill-rule="evenodd" clip-rule="evenodd" d="M101.372 19.2943C101.372 19.2943 104.748 88.3504 53.1308 108.191H53.0953C1.47842 88.3504 4.85374 19.2943 4.85374 19.2943C4.85374 19.2943 47.4765 -14.6511 101.372 19.2943Z" fill="#262AA3"/>
<mask id="mask0" mask-type="alpha" maskUnits="userSpaceOnUse" x="40" y="18" width="35" height="75">
<path d="M40.3281 92.5442V18.5891C72.2171 32.0159 74.4639 72.6577 74.5354 82.3708C63.3661 89.0207 51.8711 92.4354 40.3281 92.5442Z" fill="#FFCC00"/>
</mask>
<g mask="url(#mask0)">
<path fill-rule="evenodd" clip-rule="evenodd" d="M53.4302 95.1281L51.773 96.7852L-24.6237 20.3886L-22.9665 18.7314L53.4302 95.1281Z" fill="#FFCC00"/>
<path fill-rule="evenodd" clip-rule="evenodd" d="M59.517 95.1281L57.8598 96.7852L-18.5369 20.3886L-16.8797 18.7314L59.517 95.1281Z" fill="#FFCC00"/>
<path fill-rule="evenodd" clip-rule="evenodd" d="M47.5334 95.1281L45.8763 96.7852L-30.5204 20.3886L-28.8632 18.7314L47.5334 95.1281Z" fill="#FFCC00"/>
<path fill-rule="evenodd" clip-rule="evenodd" d="M65.6038 95.1281L63.9466 96.7852L-12.4501 20.3886L-10.7929 18.7314L65.6038 95.1281Z" fill="#FFCC00"/>
<path fill-rule="evenodd" clip-rule="evenodd" d="M71.6907 95.1281L70.0335 96.7852L-6.36316 20.3886L-4.70602 18.7314L71.6907 95.1281Z" fill="#FFCC00"/>
<path fill-rule="evenodd" clip-rule="evenodd" d="M77.7775 95.1281L76.1203 96.7852L-0.276367 20.3886L1.38078 18.7314L77.7775 95.1281Z" fill="#FFCC00"/>
<path fill-rule="evenodd" clip-rule="evenodd" d="M83.8642 95.1281L82.3958 96.5973L-0.160767 14.0407L1.30768 12.5715L83.8642 95.1281Z" fill="#FFCC00"/>
<path fill-rule="evenodd" clip-rule="evenodd" d="M89.951 95.1281L88.4826 96.5973L5.92603 14.0407L7.39448 12.5715L89.951 95.1281Z" fill="#FFCC00"/>
<path fill-rule="evenodd" clip-rule="evenodd" d="M96.4321 95.1281L94.775 96.7852L18.3783 20.3886L20.0354 18.7314L96.4321 95.1281Z" fill="#FFCC00"/>
<path fill-rule="evenodd" clip-rule="evenodd" d="M102.519 95.1281L100.862 96.7852L24.4651 20.3886L26.1222 18.7314L102.519 95.1281Z" fill="#FFCC00"/>
<path fill-rule="evenodd" clip-rule="evenodd" d="M108.606 95.1281L106.949 96.7852L30.552 20.3886L32.2091 18.7314L108.606 95.1281Z" fill="#FFCC00"/>
<path fill-rule="evenodd" clip-rule="evenodd" d="M114.693 95.1281L113.036 96.7852L36.6389 20.3886L38.2961 18.7314L114.693 95.1281Z" fill="#FFCC00"/>
<path fill-rule="evenodd" clip-rule="evenodd" d="M120.78 95.1281L119.311 96.5973L36.7545 14.0407L38.223 12.5715L120.78 95.1281Z" fill="#FFCC00"/>
</g>
<mask id="mask1" mask-type="alpha" maskUnits="userSpaceOnUse" x="40" y="11" width="35" height="75">
<path d="M40.3281 11.8467V85.8018C72.2171 72.375 74.4639 31.7331 74.5354 22.0201C63.3661 15.3702 51.8711 11.9555 40.3281 11.8467Z" fill="#CC3300"/>
</mask>
<g mask="url(#mask1)">
<path fill-rule="evenodd" clip-rule="evenodd" d="M53.4302 9.26286L51.773 7.60571L-24.6237 84.0024L-22.9665 85.6595L53.4302 9.26286Z" fill="#CC3300"/>
<path fill-rule="evenodd" clip-rule="evenodd" d="M59.517 9.26286L57.8598 7.60571L-18.5369 84.0024L-16.8797 85.6595L59.517 9.26286Z" fill="#CC3300"/>
<path fill-rule="evenodd" clip-rule="evenodd" d="M47.5334 9.26286L45.8763 7.60571L-30.5204 84.0024L-28.8632 85.6595L47.5334 9.26286Z" fill="#CC3300"/>
<path fill-rule="evenodd" clip-rule="evenodd" d="M65.6038 9.26286L63.9466 7.60571L-12.4501 84.0024L-10.7929 85.6595L65.6038 9.26286Z" fill="#CC3300"/>
<path fill-rule="evenodd" clip-rule="evenodd" d="M71.6907 9.26286L70.0335 7.60571L-6.36316 84.0024L-4.70602 85.6595L71.6907 9.26286Z" fill="#CC3300"/>
<path fill-rule="evenodd" clip-rule="evenodd" d="M77.7775 9.26286L76.1203 7.60571L-0.276367 84.0024L1.38078 85.6595L77.7775 9.26286Z" fill="#CC3300"/>
<path fill-rule="evenodd" clip-rule="evenodd" d="M83.8642 9.26276L82.3958 7.79355L-0.160767 90.3501L1.30768 91.8193L83.8642 9.26276Z" fill="#CC3300"/>
<path fill-rule="evenodd" clip-rule="evenodd" d="M89.951 9.26276L88.4826 7.79355L5.92603 90.3501L7.39448 91.8193L89.951 9.26276Z" fill="#CC3300"/>
<path fill-rule="evenodd" clip-rule="evenodd" d="M96.4321 9.26286L94.775 7.60571L18.3783 84.0024L20.0354 85.6595L96.4321 9.26286Z" fill="#CC3300"/>
<path fill-rule="evenodd" clip-rule="evenodd" d="M102.519 9.26286L100.862 7.60571L24.4651 84.0024L26.1222 85.6595L102.519 9.26286Z" fill="#CC3300"/>
<path fill-rule="evenodd" clip-rule="evenodd" d="M108.606 9.26286L106.949 7.60571L30.552 84.0024L32.2091 85.6595L108.606 9.26286Z" fill="#CC3300"/>
<path fill-rule="evenodd" clip-rule="evenodd" d="M114.693 9.26286L113.036 7.60571L36.6389 84.0024L38.2961 85.6595L114.693 9.26286Z" fill="#CC3300"/>
<path fill-rule="evenodd" clip-rule="evenodd" d="M120.78 9.26276L119.311 7.79355L36.7545 90.3501L38.223 91.8193L120.78 9.26276Z" fill="#CC3300"/>
</g>
<path fill-rule="evenodd" clip-rule="evenodd" d="M55.9016 30.6509H40.0665V73.8629H56.6913C60.9777 73.8629 64.3507 72.9367 66.7221 70.9965C69.1399 69.0183 70.2787 65.7942 70.2787 61.4904C70.2787 58.8738 69.7026 56.6603 68.5077 54.8896C67.5233 53.431 66.1422 52.3072 64.3902 51.5073C65.7145 50.6931 66.7626 49.6706 67.5184 48.4346C68.5288 46.8081 69.003 44.6206 69.003 41.93C69.003 38.1379 67.9168 35.2468 65.6306 33.3974C63.4149 31.532 60.1366 30.6509 55.9016 30.6509ZM63.5243 57.699L63.5283 57.7066L63.5327 57.714C64.0766 58.6569 64.3652 59.8454 64.3652 61.3082C64.3652 64.1457 63.6544 65.973 62.3979 66.9855C61.1264 68.0021 59.1946 68.5569 56.5091 68.5569H45.9193V54.5454H56.2053C58.022 54.5454 59.7816 54.9313 61.489 55.7072C62.3308 56.0932 63.0105 56.7448 63.5243 57.699ZM63.0288 42.4767C63.0288 44.8581 62.4434 46.5493 61.3717 47.6567C60.3551 48.7084 58.6609 49.3001 56.1446 49.3001H45.9193V35.9569H55.7193C58.3704 35.9569 60.1802 36.5141 61.2786 37.5063L61.286 37.513L61.2936 37.5193C62.4037 38.456 63.0288 40.054 63.0288 42.4767Z" fill="#262AA3"/>
<path fill-rule="evenodd" clip-rule="evenodd" d="M2.60538 17.706C2.88883 17.5062 3.23476 17.2675 3.64131 16.9959C4.98273 16.0995 6.98164 14.8456 9.57063 13.4474C14.7522 10.649 22.2741 7.28521 31.6016 5.04326C49.9464 0.633915 75.3794 0.530008 103.956 17.838C103.964 18.3203 103.969 18.928 103.966 19.6503C103.957 21.6941 103.882 24.6517 103.616 28.2733C103.084 35.5241 101.793 45.3977 98.7606 55.914C92.7529 76.752 80.0457 99.7248 53.2798 110.264C26.5139 99.7248 13.8067 76.752 7.79896 55.914C4.76705 45.3977 3.47521 35.5241 2.94356 28.2733C2.67801 24.6517 2.6028 21.6941 2.59363 19.6503C2.59009 18.8605 2.5964 18.2076 2.60538 17.706ZM53.2602 113C-3.67318 91.4385 0.0498011 16.3949 0.0498011 16.3949C0.0498011 16.3949 47.0626 -20.4937 106.51 16.3949C106.51 16.3949 110.233 91.4385 53.2994 113H53.2602Z" fill="#1F1C3A"/>
</svg>
