<svg width="227" height="227" viewBox="0 0 227 227" fill="none" xmlns="http://www.w3.org/2000/svg">
<rect x="62" width="10" height="10" rx="5" fill="#ECECEC"/>
<rect x="93" width="10" height="10" rx="5" fill="#ECECEC"/>
<rect x="124" width="10" height="10" rx="5" fill="#ECECEC"/>
<rect x="155" width="10" height="10" rx="5" fill="#ECECEC"/>
<rect x="31" y="31" width="10" height="10" rx="5" fill="#ECECEC"/>
<rect x="62" y="31" width="10" height="10" rx="5" fill="#ECECEC"/>
<rect x="93" y="31" width="10" height="10" rx="5" fill="#ECECEC"/>
<rect x="124" y="31" width="10" height="10" rx="5" fill="#ECECEC"/>
<rect x="155" y="31" width="10" height="10" rx="5" fill="#ECECEC"/>
<rect x="186" y="31" width="10" height="10" rx="5" fill="#ECECEC"/>
<rect y="62" width="10" height="10" rx="5" fill="#ECECEC"/>
<rect x="31" y="62" width="10" height="10" rx="5" fill="#ECECEC"/>
<rect x="62" y="62" width="10" height="10" rx="5" fill="#ECECEC"/>
<rect x="93" y="62" width="10" height="10" rx="5" fill="#ECECEC"/>
<rect x="124" y="62" width="10" height="10" rx="5" fill="#ECECEC"/>
<rect x="155" y="62" width="10" height="10" rx="5" fill="#ECECEC"/>
<rect x="186" y="62" width="10" height="10" rx="5" fill="#ECECEC"/>
<rect x="217" y="62" width="10" height="10" rx="5" fill="#ECECEC"/>
<rect y="93" width="10" height="10" rx="5" fill="#ECECEC"/>
<rect x="31" y="93" width="10" height="10" rx="5" fill="#ECECEC"/>
<rect x="62" y="93" width="10" height="10" rx="5" fill="#ECECEC"/>
<rect x="93" y="93" width="10" height="10" rx="5" fill="#ECECEC"/>
<rect x="124" y="93" width="10" height="10" rx="5" fill="#ECECEC"/>
<rect x="155" y="93" width="10" height="10" rx="5" fill="#ECECEC"/>
<rect x="186" y="93" width="10" height="10" rx="5" fill="#ECECEC"/>
<rect x="217" y="93" width="10" height="10" rx="5" fill="#ECECEC"/>
<rect y="124" width="10" height="10" rx="5" fill="#ECECEC"/>
<rect x="31" y="124" width="10" height="10" rx="5" fill="#ECECEC"/>
<rect x="62" y="124" width="10" height="10" rx="5" fill="#ECECEC"/>
<rect x="93" y="124" width="10" height="10" rx="5" fill="#ECECEC"/>
<rect x="124" y="124" width="10" height="10" rx="5" fill="#ECECEC"/>
<rect x="155" y="124" width="10" height="10" rx="5" fill="#ECECEC"/>
<rect x="186" y="124" width="10" height="10" rx="5" fill="#ECECEC"/>
<rect x="217" y="124" width="10" height="10" rx="5" fill="#ECECEC"/>
<rect y="155" width="10" height="10" rx="5" fill="#ECECEC"/>
<rect x="31" y="155" width="10" height="10" rx="5" fill="#ECECEC"/>
<rect x="62" y="155" width="10" height="10" rx="5" fill="#ECECEC"/>
<rect x="93" y="155" width="10" height="10" rx="5" fill="#ECECEC"/>
<rect x="124" y="155" width="10" height="10" rx="5" fill="#ECECEC"/>
<rect x="155" y="155" width="10" height="10" rx="5" fill="#ECECEC"/>
<rect x="186" y="155" width="10" height="10" rx="5" fill="#ECECEC"/>
<rect x="217" y="155" width="10" height="10" rx="5" fill="#ECECEC"/>
<rect x="31" y="186" width="10" height="10" rx="5" fill="#ECECEC"/>
<rect x="62" y="186" width="10" height="10" rx="5" fill="#ECECEC"/>
<rect x="93" y="186" width="10" height="10" rx="5" fill="#ECECEC"/>
<rect x="124" y="186" width="10" height="10" rx="5" fill="#ECECEC"/>
<rect x="155" y="186" width="10" height="10" rx="5" fill="#ECECEC"/>
<rect x="186" y="186" width="10" height="10" rx="5" fill="#ECECEC"/>
<rect x="62" y="217" width="10" height="10" rx="5" fill="#ECECEC"/>
<rect x="93" y="217" width="10" height="10" rx="5" fill="#ECECEC"/>
<rect x="124" y="217" width="10" height="10" rx="5" fill="#ECECEC"/>
<rect x="155" y="217" width="10" height="10" rx="5" fill="#ECECEC"/>
</svg>
